<svg width="34" height="26" viewBox="0 0 34 26" fill="none" xmlns="http://www.w3.org/2000/svg">
<path d="M17.3208 0.00330279C21.1597 0.109866 24.644 1.38863 27.7511 3.91482C30.543 6.184 32.5919 9.11763 33.9316 12.6656C34.016 12.8912 34.0273 13.0856 33.9372 13.3175C32.1304 18.0627 29.1639 21.6107 25.0323 23.9237C23.1523 24.9768 21.1484 25.6099 19.0488 25.8669C15.5589 26.2995 12.2323 25.6789 9.07448 23.9864C6.18687 22.4381 3.82837 20.1814 1.98772 17.2541C1.19968 16.0004 0.541103 14.6715 0.0401335 13.2485C-0.0105264 13.1044 -0.0161553 12.8975 0.0401335 12.7533C2.20162 7.06785 5.88854 3.16887 11.1009 1.09401C12.9471 0.354336 14.9454 -0.0405764 17.3208 0.00330279Z" fill="white"/>
<circle cx="17.5" cy="13.5" r="7.5" fill="#28405D"/>
<path fill-rule="evenodd" clip-rule="evenodd" d="M17.0377 6.02181C17.2247 6.00736 17.4137 6 17.6044 6C21.6117 6 24.8603 9.24854 24.8603 13.2558C24.8603 13.5069 24.8475 13.755 24.8226 13.9996C24.6356 14.014 24.4466 14.0214 24.2558 14.0214C20.2485 14.0214 17 10.7729 17 6.76558C17 6.51447 17.0128 6.26635 17.0377 6.02181Z" fill="#506F95"/>
</svg>
