<svg width="47" height="44" viewBox="0 0 47 44" fill="none" xmlns="http://www.w3.org/2000/svg">
<path d="M26.4442 42.0029C29.6566 38.7905 31.3787 34.982 31.743 30.5443C31.743 30.2131 32.0079 29.7495 32.306 29.5839C36.545 26.9345 39.2938 23.1922 40.4529 18.324C40.4529 18.2577 40.5522 18.2246 40.6185 18.1584C45.1887 20.6753 48.8316 28.6897 45.0231 35.9093C40.9165 43.6919 31.8755 45.0165 26.4442 41.9698V42.0029ZM1.87116 36.0749C5.97771 43.725 15.0519 45.0497 20.2844 42.036C20.1851 41.9035 20.1188 41.771 20.0195 41.6386C17.0389 38.5255 15.383 34.8164 15.085 30.5112C15.085 30.18 14.7869 29.7495 14.4889 29.5507C10.1174 26.8682 7.43487 23.0266 6.24265 18.0921C1.60622 20.5759 -2.10293 28.7228 1.83804 36.0417L1.87116 36.0749ZM21.9403 0.539948C15.7473 1.06983 9.32256 7.26277 9.68685 12.4622C9.75309 12.4622 9.85244 12.5284 9.91867 12.5284C10.1505 12.5284 10.4154 12.4622 10.6473 12.4291C14.257 11.6343 17.8337 11.8992 21.1455 13.522C22.8013 14.3168 24.0598 14.3168 25.7157 13.522C29.3586 11.7667 33.2333 11.6343 37.2736 12.694C36.8762 7.16342 31.3456 -0.188633 21.9734 0.606184L21.9403 0.539948ZM37.373 16.2376C33.5976 14.9791 30.0209 15.1116 26.378 16.8337C29.0274 19.45 30.617 22.4305 31.4781 26.0403C34.8892 23.4903 36.81 20.311 37.373 16.2045V16.2376ZM20.0857 16.6681C19.887 16.5356 19.6552 16.4363 19.4234 16.37C16.509 15.2441 13.5947 15.1447 10.581 15.8733C9.5875 16.1051 9.48815 16.635 9.68685 17.4629C10.283 19.9798 11.3758 22.1987 13.1642 24.0533C13.8265 24.7156 14.5551 25.3117 15.4162 26.1065C16.2772 22.4305 17.8668 19.4831 20.3506 16.9662C20.2513 16.8337 20.2182 16.7012 20.1188 16.6681H20.0857ZM18.7279 27.0007C18.6617 27.2656 19.1253 27.8618 19.4234 27.9611C22.0396 28.789 24.7221 28.7559 27.3715 28.0274C27.9676 27.8618 28.2657 27.5968 28.1332 26.9014C27.504 23.689 25.9806 20.9734 23.4637 18.7876C20.8143 20.9734 19.3571 23.7552 18.7279 27.0007ZM28.1663 31.3391C24.9208 32.2001 21.8409 32.167 18.5954 31.3391C19.1915 34.9489 20.7149 37.797 23.4306 40.1483C26.0468 37.7307 27.7027 34.982 28.1663 31.3391Z" fill="#243C5A"/>
</svg>
