<svg width="51" height="44" viewBox="0 0 51 44" fill="none" xmlns="http://www.w3.org/2000/svg">
<path d="M0.354146 43.8639C-0.970548 35.8495 4.59317 29.0936 11.614 28.3319C14.5946 28.0007 17.6414 28.067 20.6551 28.3319C26.55 28.8287 31.6832 34.2599 32.0475 40.1879C32.1137 41.3801 32.0475 42.5724 32.0475 43.8639H0.354146ZM25.4571 16.2109C25.4571 11.0115 21.4499 6.93808 16.2505 6.90496C10.9517 6.83873 6.87826 10.8459 6.84515 16.1116C6.81203 21.4104 10.7861 25.4838 16.0849 25.4838C21.3505 25.4838 25.4571 21.4435 25.4571 16.2109ZM43.9697 0.811371C42.7444 2.0036 41.5521 3.19582 40.3268 4.38804C43.7048 8.03095 45.5593 12.3693 45.5593 17.4694C45.5593 22.5695 43.6716 26.8747 40.2606 30.5176C41.4859 31.743 42.645 32.9021 43.8703 34.1274C53.1101 25.4176 53.1432 9.48812 44.0028 0.811371H43.9697ZM32.7429 11.9057C35.6904 15.8135 35.6904 18.8603 32.9085 23.0331C34.0345 24.2916 35.1605 25.55 36.2534 26.7754C41.3865 22.4701 41.3866 12.9323 36.4852 8.4946C35.1605 9.68682 33.9351 10.8128 32.7429 11.9057Z" fill="#243C5A"/>
</svg>
