<svg width="108" height="108" viewBox="0 0 108 108" fill="none" xmlns="http://www.w3.org/2000/svg">
<mask id="mask0_136_399" style="mask-type:luminance" maskUnits="userSpaceOnUse" x="4" y="4" width="100" height="100">
<path d="M54.0001 99C78.8536 99 99.0001 78.8535 99.0001 54C99.0001 29.1465 78.8536 9 54.0001 9C29.1466 9 9.00006 29.1465 9.00006 54C9.00006 78.8535 29.1466 99 54.0001 99Z" fill="#555555" stroke="white" stroke-width="9.01408" stroke-linejoin="round"/>
<path d="M38.2501 58.275C39.4435 58.275 40.5881 57.8009 41.432 56.957C42.276 56.1131 42.7501 54.9685 42.7501 53.775C42.7501 52.5816 42.276 51.437 41.432 50.593C40.5881 49.7491 39.4435 49.275 38.2501 49.275C37.0566 49.275 35.912 49.7491 35.0681 50.593C34.2242 51.437 33.7501 52.5816 33.7501 53.775C33.7501 54.9685 34.2242 56.1131 35.0681 56.957C35.912 57.8009 37.0566 58.275 38.2501 58.275Z" fill="white"/>
<path d="M49.3874 64.9125C50.8521 63.4515 52.0136 61.7154 52.8052 59.8041C53.5967 57.8927 54.0028 55.8438 53.9999 53.775C54.0028 51.7062 53.5967 49.6573 52.8052 47.7459C52.0136 45.8346 50.8521 44.0985 49.3874 42.6375M60.5249 76.0478C63.4543 73.1257 65.7773 69.6536 67.3604 65.8309C68.9436 62.0082 69.7556 57.9103 69.7499 53.7728C69.7499 45.0743 66.2242 37.1993 60.5249 31.5" stroke="white" stroke-width="9.01408" stroke-linecap="round" stroke-linejoin="round"/>
</mask>
<g mask="url(#mask0_136_399)">
<path d="M6.10352e-05 0H108V108H6.10352e-05V0Z" fill="#004D00"/>
</g>
</svg>
