<svg width="44" height="44" viewBox="0 0 44 44" fill="none" xmlns="http://www.w3.org/2000/svg">
<path d="M34.4723 31.5047C37.5191 34.5183 40.4996 37.532 43.4471 40.4795C42.4867 41.4399 41.4932 42.4003 40.4003 43.5263C40.334 43.3938 40.2347 43.162 40.1022 43.0295C37.3866 40.3139 34.671 37.5983 31.9554 34.8495C31.6242 34.5183 31.4255 34.4521 31.0281 34.7502C21.4903 41.8704 7.9784 38.7243 2.54715 28.1267C-2.1224 18.9863 1.45428 7.62706 10.4953 2.75881C22.1526 -3.50037 36.4262 3.58674 38.4132 16.6681C39.2081 21.8675 37.9827 26.6033 34.9028 30.8754C34.7703 31.041 34.6379 31.2397 34.4392 31.5047H34.4723ZM17.45 21.7019C17.45 22.0331 17.45 22.2649 17.45 22.4967C17.45 24.1526 17.45 25.8085 17.45 27.4975C17.45 27.8949 17.5824 28.0605 17.9798 28.0273C18.7084 28.0273 19.4039 28.0273 20.1325 28.0273C20.6623 28.0273 21.1922 28.0273 21.7883 28.0273V21.7019C22.0864 21.7019 22.2851 21.7019 22.5169 21.7019C24.1728 21.7019 25.8618 21.7019 27.5176 21.7019C28.0475 21.7019 28.18 21.5363 28.18 21.0065C28.1469 20.0129 28.18 18.9863 28.18 17.9597C28.18 17.496 28.0806 17.3304 27.5839 17.3636C25.8949 17.3636 24.1728 17.3636 22.4838 17.3636C22.2851 17.3636 22.0533 17.3636 21.7883 17.3636V11.005C20.4968 11.005 19.2714 11.005 18.0461 11.005C17.6487 11.005 17.4831 11.1375 17.4831 11.5349C17.4831 13.0252 17.4831 14.5155 17.4831 16.0057C17.4831 16.4363 17.4831 16.8668 17.4831 17.3636H11.1908V21.6688H17.4831L17.45 21.7019Z" fill="#243C5A"/>
</svg>
