<svg width="108" height="108" viewBox="0 0 108 108" fill="none" xmlns="http://www.w3.org/2000/svg">
<path opacity="0.16" d="M85.4996 49.4995C85.4996 59.0472 81.7068 68.204 74.9555 74.9553C68.2042 81.7066 59.0474 85.4995 49.4996 85.4995C39.9518 85.4995 30.7951 81.7066 24.0438 74.9553C17.2925 68.204 13.4996 59.0472 13.4996 49.4995C13.4996 39.9517 17.2925 30.7949 24.0438 24.0436C30.7951 17.2923 39.9518 13.4995 49.4996 13.4995C59.0474 13.4995 68.2042 17.2923 74.9555 24.0436C81.7068 30.7949 85.4996 39.9517 85.4996 49.4995Z" fill="#004D00"/>
<path d="M94.5001 94.5L74.9566 74.9565M74.9566 74.9565C78.2996 71.6135 80.9514 67.6448 82.7606 63.277C84.5698 58.9091 85.501 54.2277 85.501 49.5C85.501 44.7723 84.5698 40.0909 82.7606 35.7231C80.9514 31.3552 78.2996 27.3865 74.9566 24.0435C71.6136 20.7005 67.6449 18.0487 63.277 16.2395C58.9092 14.4303 54.2278 13.4991 49.5001 13.4991C44.7724 13.4991 40.0909 14.4303 35.7231 16.2395C31.3553 18.0487 27.3866 20.7005 24.0436 24.0435C17.2921 30.795 13.4991 39.952 13.4991 49.5C13.4991 59.0481 17.2921 68.205 24.0436 74.9565C30.7951 81.708 39.952 85.5009 49.5001 85.5009C59.0481 85.5009 68.2051 81.708 74.9566 74.9565ZM49.5001 36V63M36.0001 49.5H63.0001" stroke="#004D00" stroke-width="9.01408" stroke-linecap="round" stroke-linejoin="round"/>
</svg>
